<svg width="16" height="20" viewBox="0 0 16 20" fill="none" xmlns="http://www.w3.org/2000/svg">
<path d="M15.6219 5.01339L10.782 0.209821C10.647 0.0758929 10.4648 0 10.2737 0H0.719697C0.321615 0 0 0.319196 0 0.714286V19.2857C0 19.6808 0.321615 20 0.719697 20H15.1136C15.5117 20 15.8333 19.6808 15.8333 19.2857V5.52009C15.8333 5.33036 15.7569 5.14732 15.6219 5.01339ZM14.1735 5.84821H9.94081V1.64732L14.1735 5.84821ZM14.214 18.3929H1.61932V1.60714H8.41146V6.42857C8.41146 6.67721 8.51098 6.91567 8.68813 7.09148C8.86527 7.2673 9.10554 7.36607 9.35606 7.36607H14.214V18.3929ZM8.63636 9.10714C8.63636 9.00893 8.5554 8.92857 8.45644 8.92857H7.37689C7.27794 8.92857 7.19697 9.00893 7.19697 9.10714V11.5179H4.76799C4.66903 11.5179 4.58807 11.5982 4.58807 11.6964V12.7679C4.58807 12.8661 4.66903 12.9464 4.76799 12.9464H7.19697V15.3571C7.19697 15.4554 7.27794 15.5357 7.37689 15.5357H8.45644C8.5554 15.5357 8.63636 15.4554 8.63636 15.3571V12.9464H11.0653C11.1643 12.9464 11.2453 12.8661 11.2453 12.7679V11.6964C11.2453 11.5982 11.1643 11.5179 11.0653 11.5179H8.63636V9.10714Z" fill="#CDCCCC"/>
</svg>
