<svg width="16" height="18" viewBox="0 0 16 18" fill="none" xmlns="http://www.w3.org/2000/svg">
<path d="M12.8026 2.50003H12.1621V1.05603H10.8822V2.50003H4.48027V1.05603H3.20036V2.50003H2.55982C2.22054 2.50144 1.89554 2.65421 1.65574 2.92499C1.41595 3.19578 1.28084 3.56259 1.27991 3.94536V15.5014C1.28115 15.8839 1.4164 16.2504 1.65616 16.5209C1.89592 16.7914 2.22075 16.944 2.55982 16.9454H12.8026C13.1417 16.944 13.4665 16.7914 13.7063 16.5209C13.9461 16.2504 14.0813 15.8839 14.0825 15.5014V3.94536C14.0816 3.56259 13.9465 3.19578 13.7067 2.92499C13.4669 2.65421 13.1419 2.50144 12.8026 2.50003ZM12.8026 15.5H2.55982V6.11203H12.8026V15.5Z" fill="#707070"/>
<path d="M7.09093 8.33337H4.72729V11H7.09093V8.33337Z" fill="white"/>
<path d="M6.49999 9H5.31818V10.3333H6.49999V9Z" stroke="#707070"/>
</svg>
