<svg width="22" height="20" viewBox="0 0 22 20" fill="none" xmlns="http://www.w3.org/2000/svg">
<path d="M15.376 8.4729H6.62391C6.52363 8.4729 6.44157 8.55495 6.44157 8.65524V17.8176C6.44157 17.9179 6.52363 18 6.62391 18H15.376C15.4763 18 15.5584 17.9179 15.5584 17.8176V8.65524C15.5584 8.55495 15.4763 8.4729 15.376 8.4729ZM7.90026 9.93159H14.0997V12.5983H7.90026V9.93159ZM14.0997 16.5413H7.90026V13.8746H14.0997V16.5413Z" fill="#1D5DC4"/>
<path d="M8.99428 15.3561C8.99428 15.5496 9.07112 15.7351 9.2079 15.8719C9.34468 16.0087 9.53019 16.0855 9.72363 16.0855C9.91706 16.0855 10.1026 16.0087 10.2394 15.8719C10.3761 15.7351 10.453 15.5496 10.453 15.3561C10.453 15.1627 10.3761 14.9772 10.2394 14.8404C10.1026 14.7036 9.91706 14.6268 9.72363 14.6268C9.53019 14.6268 9.34468 14.7036 9.2079 14.8404C9.07112 14.9772 8.99428 15.1627 8.99428 15.3561ZM8.99428 11.2992C8.99428 11.4926 9.07112 11.6781 9.2079 11.8149C9.34468 11.9517 9.53019 12.0285 9.72363 12.0285C9.91706 12.0285 10.1026 11.9517 10.2394 11.8149C10.3761 11.6781 10.453 11.4926 10.453 11.2992C10.453 11.1057 10.3761 10.9202 10.2394 10.7834C10.1026 10.6467 9.91706 10.5698 9.72363 10.5698C9.53019 10.5698 9.34468 10.6467 9.2079 10.7834C9.07112 10.9202 8.99428 11.1057 8.99428 11.2992Z" fill="#1D5DC4"/>
<path d="M17.8239 6.71567C16.78 3.96011 14.1202 2 11.0045 2C7.88888 2 5.22905 3.95783 4.18517 6.71339C2.22278 7.23077 0.777764 9.0245 0.78916 11.1533C0.802835 13.5328 2.64899 15.4678 4.97378 15.6752C5.0809 15.6843 5.17207 15.6 5.17207 15.4929V14.1162C5.17207 14.0251 5.10369 13.9476 5.01252 13.9362C4.39714 13.8587 3.81594 13.5897 3.36922 13.1499C2.82221 12.6142 2.52135 11.894 2.52135 11.1305C2.52135 10.4923 2.72876 9.8906 3.1185 9.38917C3.49913 8.90143 4.03474 8.54815 4.62506 8.39316L5.48887 8.16524L5.80568 7.32877C6.0017 6.80912 6.2752 6.32137 6.61936 5.88148C6.95896 5.44387 7.36238 5.06097 7.81366 4.74188C8.75041 4.08319 9.85355 3.73447 11.0045 3.73447C12.1555 3.73447 13.2587 4.08319 14.1954 4.74416C14.649 5.06325 15.0501 5.44615 15.3897 5.88376C15.7339 6.32365 16.0074 6.8114 16.2034 7.33105L16.5179 8.16524L17.3795 8.39316C18.6148 8.72137 19.4786 9.84502 19.4786 11.1282C19.4786 11.894 19.1778 12.612 18.6308 13.1476C18.1863 13.5852 17.6074 13.8564 16.992 13.9339C16.9008 13.9453 16.8347 14.0228 16.8347 14.114V15.4929C16.8347 15.6 16.9282 15.6843 17.0353 15.6752C19.3533 15.4655 21.1949 13.5328 21.2108 11.1578C21.2245 9.02906 19.7818 7.23533 17.8239 6.71567Z" fill="#1D5DC4"/>
</svg>
