<svg width="19" height="17" viewBox="0 0 19 17" fill="none" xmlns="http://www.w3.org/2000/svg">
<path id="Vector" d="M3.61538 10.5455H15.3846M3.61538 10.5455C2.92174 10.5455 2.25651 10.2581 1.76603 9.74666C1.27555 9.23519 1 8.5415 1 7.81818M3.61538 10.5455C2.92174 10.5455 2.25651 10.8328 1.76603 11.3443C1.27555 11.8557 1 12.5494 1 13.2727C1 13.996 1.27555 14.6897 1.76603 15.2012C2.25651 15.7127 2.92174 16 3.61538 16H15.3846C16.0783 16 16.7435 15.7127 17.234 15.2012C17.7245 14.6897 18 13.996 18 13.2727C18 12.5494 17.7245 11.8557 17.234 11.3443C16.7435 10.8328 16.0783 10.5455 15.3846 10.5455M1 7.81818C1 7.09486 1.27555 6.40117 1.76603 5.88971C2.25651 5.37825 2.92174 5.09091 3.61538 5.09091H15.3846C16.0783 5.09091 16.7435 5.37825 17.234 5.88971C17.7245 6.40117 18 7.09486 18 7.81818M1 7.81818C1 6.93303 1.27531 6.07176 1.78462 5.36364L4.03995 2.22727C4.31402 1.84622 4.6694 1.53693 5.07796 1.32392C5.48651 1.1109 5.93702 1 6.3938 1H12.6062C13.5321 1 14.4038 1.45455 14.9601 2.22727L17.2154 5.36364C17.7247 6.07176 18 6.93303 18 7.81818M18 7.81818C18 8.5415 17.7245 9.23519 17.234 9.74666C16.7435 10.2581 16.0783 10.5455 15.3846 10.5455M15.3846 13.2727H15.3916V13.28H15.3846V13.2727ZM15.3846 7.81818H15.3916V7.82546H15.3846V7.81818ZM12.7692 13.2727H12.7762V13.28H12.7692V13.2727ZM12.7692 7.81818H12.7762V7.82546H12.7692V7.81818Z" stroke="#1D5DC4" stroke-width="1.5" stroke-linecap="round" stroke-linejoin="round"/>
</svg>
