<svg width="27" height="28" viewBox="0 0 27 28" fill="none" xmlns="http://www.w3.org/2000/svg">
<g clip-path="url(#clip0_51357_67675)">
<path d="M24.92 13.4225V25.3825H13.0111C6.37272 25.3825 1 20.0252 1 13.4225C1 6.8198 6.37272 1.46252 13.0111 1.46252C19.6391 1.46252 24.92 6.80952 24.92 13.4225Z" stroke="#1D5DC4" stroke-width="2" stroke-linecap="round" stroke-linejoin="round"/>
<path d="M7.5 15.8308C8.32843 15.8308 9 15.1616 9 14.3362C9 13.5107 8.32843 12.8416 7.5 12.8416C6.67157 12.8416 6 13.5107 6 14.3362C6 15.1616 6.67157 15.8308 7.5 15.8308Z" fill="#1D5DC4"/>
<path d="M13.5 15.8308C14.3284 15.8308 15 15.1616 15 14.3362C15 13.5107 14.3284 12.8416 13.5 12.8416C12.6716 12.8416 12 13.5107 12 14.3362C12 15.1616 12.6716 15.8308 13.5 15.8308Z" fill="#1D5DC4"/>
<path d="M19.5 15.8308C20.3284 15.8308 21 15.1616 21 14.3362C21 13.5107 20.3284 12.8416 19.5 12.8416C18.6716 12.8416 18 13.5107 18 14.3362C18 15.1616 18.6716 15.8308 19.5 15.8308Z" fill="#1D5DC4"/>
</g>
<defs>
<clipPath id="clip0_51357_67675">
<rect width="27" height="27" fill="white" transform="translate(0 0.462524)"/>
</clipPath>
</defs>
</svg>
