<svg width="20" height="20" viewBox="0 0 20 20" fill="none" xmlns="http://www.w3.org/2000/svg">
<path d="M20 11.3171L17.5012 10.7468C17.728 8.99253 17.3189 7.21502 16.3479 5.73643L18.2689 4.20495L17.3258 3.02212L15.4056 4.55285C14.1683 3.28021 12.5219 2.48481 10.7559 2.30667V0H9.24334V2.30667C7.47739 2.48481 5.8309 3.28021 4.59369 4.55285L2.67272 3.02212L1.73038 4.20495L3.65135 5.73643C2.68064 7.21512 2.27175 8.99262 2.49877 10.7468L0 11.3171L0.337304 12.7918L2.83078 12.2223C3.39838 13.91 4.5412 15.3443 6.05937 16.2745L5.05351 18.3642L6.41634 19.0199L7.42144 16.9325C9.08541 17.5493 10.9153 17.5493 12.5793 16.9325L13.5852 19.0199L14.948 18.3634L13.9421 16.2745C15.4603 15.3443 16.6031 13.91 17.1707 12.2223L19.6642 12.7911L20 11.3171ZM16.0499 9.83173C16.0499 10.0261 16.0386 10.2182 16.0204 10.4088L12.239 9.54509C12.22 9.39219 12.1853 9.24165 12.1354 9.09586L15.1575 6.68557C15.7403 7.63153 16.0492 8.72064 16.0499 9.83173ZM9.24334 9.83173C9.24334 9.68215 9.28769 9.53593 9.37079 9.41156C9.45389 9.28718 9.57201 9.19025 9.7102 9.13301C9.8484 9.07577 10.0005 9.06079 10.1472 9.08997C10.2939 9.11915 10.4286 9.19118 10.5344 9.29695C10.6402 9.40272 10.7122 9.53748 10.7414 9.68418C10.7706 9.83089 10.7556 9.98295 10.6983 10.1211C10.6411 10.2593 10.5442 10.3775 10.4198 10.4606C10.2954 10.5437 10.1492 10.588 9.99962 10.588C9.79904 10.588 9.60668 10.5083 9.46485 10.3665C9.32302 10.2247 9.24334 10.0323 9.24334 9.83173ZM14.2167 5.50123L11.1946 7.91152C11.0563 7.82619 10.9092 7.75596 10.7559 7.70202V3.83437C12.0604 3.99824 13.2756 4.58306 14.2167 5.50123ZM9.24334 3.83437V7.70278C9.09005 7.75672 8.94299 7.82695 8.80469 7.91227L5.78257 5.50199C6.7236 4.58382 7.93884 3.99824 9.24334 3.83437ZM3.94933 9.83173C3.95001 8.72064 4.25894 7.63153 4.84175 6.68557L7.86387 9.09586C7.81399 9.24165 7.77927 9.39219 7.76026 9.54509L3.97882 10.408C3.95991 10.2165 3.95007 10.0242 3.94933 9.83173ZM4.31462 11.8828L8.0779 11.0236C8.16665 11.1704 8.27168 11.3066 8.391 11.4298L6.71734 14.9064C5.60907 14.1867 4.76502 13.1251 4.31462 11.8828ZM9.99962 15.882C9.34631 15.881 8.69753 15.7737 8.07865 15.5644L9.75761 12.0764C9.83779 12.0888 9.91858 12.0969 9.99962 12.1006C10.0804 12.0968 10.1609 12.0887 10.2409 12.0764L11.9206 15.5644C11.3018 15.7739 10.6529 15.8811 9.99962 15.882ZM13.2819 14.9064L11.6082 11.429C11.7275 11.3061 11.8325 11.1701 11.9213 11.0236L15.6846 11.8828C15.2342 13.1251 14.3902 14.1867 13.2819 14.9064Z" fill="#1D5DC4"/>
</svg>
