<svg width="61" height="60" viewBox="0 0 61 60" fill="none" xmlns="http://www.w3.org/2000/svg">
<path d="M40.9484 35.4467C41.2596 32.8555 41.1665 32.4753 43.0964 32.8949L43.5864 32.9382C45.0706 33.0057 47.0123 32.6994 48.1524 32.1695C50.6077 31.0305 52.0634 29.1277 49.6425 29.6275C44.1197 30.7665 43.74 28.8972 43.74 28.8972C49.5721 20.2444 52.0102 9.26092 49.906 6.57217C44.167 -0.761333 34.2324 2.70647 34.0659 2.79659L34.0128 2.80693C32.9215 2.57991 31.7007 2.44498 30.3288 2.42282C27.8296 2.38195 25.9332 3.07827 24.4948 4.16903C24.4948 4.16903 6.77214 -3.13246 7.5965 13.3512C7.77181 16.8579 12.6229 39.8851 18.4086 32.9298C20.5232 30.3868 22.5668 28.2363 22.5668 28.2363C23.5818 28.9105 24.7966 29.2542 26.0711 29.1306L26.1696 29.0469C26.139 29.3626 26.1523 29.6713 26.2095 30.0367C24.7188 31.7027 25.1571 31.9952 22.1768 32.6083C19.1621 33.2297 20.9334 34.3358 22.0892 34.6248C23.4917 34.9759 26.7344 35.4728 28.9263 32.4044L28.8391 32.7545C29.4241 33.2223 29.3843 36.1164 29.467 38.1842C29.5497 40.252 29.6886 42.1814 30.1101 43.3199C30.5317 44.4575 31.029 47.388 34.9454 46.5489C38.2182 45.8467 40.7204 44.8372 40.9484 35.4467Z" fill="black"/>
<path d="M33.67 48.5925C31.9376 48.5925 30.8099 47.9228 30.1244 47.2757C29.0902 46.3002 28.68 45.043 28.4353 44.292L28.3294 43.9783C27.836 42.6463 27.669 40.7287 27.5701 38.2595C27.5555 37.8735 27.5432 37.4875 27.5331 37.1013C27.5248 36.8054 27.5144 36.4341 27.4996 36.0445C26.8755 36.3422 26.2131 36.5517 25.5313 36.667C24.3101 36.8758 22.9972 36.8078 21.6282 36.4656C20.6625 36.2243 19.6589 35.7239 19.0872 34.9508C17.4203 36.4109 15.8302 36.2125 14.9639 35.9239C13.4359 35.4142 12.0684 33.9827 10.7826 31.546C9.86713 29.8111 8.98122 27.5498 8.14948 24.8261C6.70169 20.0824 5.7818 15.086 5.70006 13.4462C5.443 8.31146 6.8248 4.63979 9.80706 2.5336C14.5124 -0.789917 21.6405 1.16411 24.2392 2.05149C25.9849 0.999138 28.0389 0.486502 30.3603 0.523928C31.6071 0.544118 32.7939 0.653933 33.8965 0.849927C35.0464 0.488472 37.3185 -0.0305661 39.9191 0.00144288C44.7106 0.0585666 48.6812 1.92592 51.401 5.4016C53.3417 7.88156 52.3824 13.0887 51.6374 15.9724C50.5899 20.0277 48.7536 24.342 46.4982 28.0974C47.1108 28.1019 47.9977 28.028 49.2593 27.768C51.7482 27.2539 52.4755 28.5884 52.673 29.1857C53.4643 31.5825 50.0246 33.3932 48.9516 33.8911C47.5767 34.5298 45.3355 34.9183 43.4997 34.8341L43.4194 34.8287L42.9373 34.7863L42.8896 35.1882L42.8438 35.5816C42.7206 40.3406 42.0406 43.3544 40.6415 45.3463C39.1755 47.4338 37.1373 48.0193 35.3423 48.4039C34.7931 48.5258 34.2325 48.589 33.67 48.5925ZM30.0249 31.2713C31.1432 32.166 31.2412 33.8497 31.3284 36.9964C31.3392 37.3889 31.3496 37.7607 31.3634 38.1079C31.4057 39.1588 31.5047 41.62 31.8898 42.66C31.9445 42.8068 31.9932 42.9565 32.0444 43.1141C32.4738 44.4299 32.6895 45.0893 34.5465 44.6914C36.1061 44.3575 36.9073 44.0576 37.5347 43.1643C38.4467 41.8652 38.9569 39.2538 39.0505 35.3999L40.9473 35.4462L39.0633 35.2202L39.1184 34.7499C39.2991 33.1997 39.4291 32.0789 40.4657 31.3382C41.297 30.7438 42.2449 30.8015 42.9999 30.9374C42.1706 30.3115 41.9411 29.5758 41.88 29.2744L41.722 28.4953L42.1662 27.8355C44.7269 24.0357 46.839 19.3659 47.9608 15.023C49.1131 10.5605 48.7615 8.19032 48.4104 7.7422C43.7587 1.79788 35.691 4.25174 34.8489 4.53096L34.7061 4.60778L33.992 4.74123L33.6262 4.6654C32.6181 4.45611 31.4983 4.34038 30.2972 4.32068C28.4107 4.28917 26.889 4.73483 25.6412 5.6818L24.7754 6.33823L23.7704 5.92409C21.6243 5.04655 15.319 3.28212 11.992 5.63847C10.1454 6.9464 9.30427 9.50958 9.4914 13.2566C9.55295 14.4936 10.3941 19.1763 11.7798 23.7186C13.6959 29.9953 15.4372 32.0798 16.164 32.3226C16.2906 32.3655 16.62 32.1094 16.9475 31.7164C19.0778 29.1542 21.1038 27.0185 21.189 26.9284L22.2876 25.7726L23.6157 26.6551C24.151 27.0111 24.7415 27.2125 25.3481 27.2504L28.5161 24.5489L28.0571 29.232C28.0468 29.3374 28.0418 29.4802 28.0832 29.7461L28.2211 30.634L27.6237 31.3028L27.5548 31.3801L29.2951 32.1838L30.0249 31.2713Z" fill="black"/>
<path d="M49.644 29.6275C44.1207 30.7665 43.741 28.8967 43.741 28.8967C49.5726 20.2439 52.0102 9.25993 49.9064 6.57167C44.167 -0.761832 34.2324 2.70646 34.0664 2.79658L34.0128 2.80594C32.9215 2.5799 31.7007 2.44497 30.3283 2.42281C27.8291 2.38194 25.9332 3.07777 24.4948 4.16853C24.4948 4.16853 6.77165 -3.13247 7.59601 13.3512C7.77132 16.8579 12.6224 39.8851 18.4081 32.9298C20.5227 30.3868 22.5659 28.2363 22.5659 28.2363C23.5808 28.9105 24.7957 29.2542 26.0696 29.1306L26.1686 29.0469C26.1381 29.3625 26.1519 29.6713 26.208 30.0367C24.7178 31.7026 25.1551 31.9952 22.1758 32.6083C19.1606 33.2297 20.9319 34.3358 22.0887 34.6248C23.4907 34.9759 26.7339 35.4728 28.9253 32.4044L28.8377 32.7545C29.4217 33.2223 29.8319 35.7973 29.763 38.1315C29.694 40.4657 29.6482 42.0681 30.1087 43.3199C30.5691 44.5712 31.0276 47.388 34.9445 46.5489C38.2173 45.8472 39.9132 44.0296 40.1496 40.9981C40.317 38.8426 40.6957 39.1612 40.7199 37.2338L41.0242 36.3213C41.3743 33.3991 41.0798 32.4566 43.0964 32.8954L43.5864 32.9382C45.0706 33.0062 47.0128 32.6994 48.1528 32.1695C50.6082 31.03 52.0643 29.1277 49.644 29.6275Z" fill="#336791"/>
<path d="M33.868 47.4225C30.6026 47.423 29.5684 44.8372 29.1449 43.7799C28.5259 42.2306 28.392 36.2169 28.5299 31.285C28.5391 31.1204 28.6121 30.9658 28.7335 30.8542C28.8549 30.7426 29.0151 30.6827 29.1799 30.6873C29.3448 30.6919 29.5013 30.7607 29.6162 30.8789C29.7312 30.9972 29.7955 31.1556 29.7955 31.3205C29.6364 37.0087 29.8624 42.1632 30.3204 43.3096C31.0359 45.0981 32.1208 46.6626 35.1892 46.0057C38.102 45.3808 39.1928 44.2763 39.6783 41.4605C40.0516 39.2991 40.7883 33.1509 40.8789 31.9375C40.8914 31.7702 40.9698 31.6146 41.097 31.5051C41.2242 31.3955 41.3897 31.341 41.557 31.3535C41.7244 31.366 41.88 31.4444 41.9895 31.5716C42.099 31.6988 42.1535 31.8642 42.1411 32.0316C42.0465 33.2942 41.3128 39.4311 40.9252 41.6756C40.3515 45.0021 38.8688 46.511 35.4541 47.2432C34.9332 47.3584 34.4015 47.4185 33.868 47.4225ZM16.1641 34.7937C15.8787 34.7934 15.5953 34.7467 15.3249 34.6553C13.204 33.9477 11.184 30.4937 9.32054 24.3883C7.9023 19.7406 7.00359 14.8901 6.9248 13.3137C6.69089 8.64042 7.89492 5.33365 10.5024 3.486C15.6613 -0.169427 24.3401 3.31167 24.707 3.46137C24.861 3.52581 24.9832 3.64845 25.0472 3.80261C25.1112 3.95676 25.1116 4.12995 25.0485 4.28445C24.9854 4.43895 24.8638 4.56225 24.7102 4.62751C24.5566 4.69278 24.3834 4.69471 24.2284 4.6329V4.6334C24.1446 4.59892 15.8223 1.26507 11.2317 4.52063C9.00193 6.10187 7.97814 9.03881 8.18841 13.2512C8.25489 14.5788 9.09451 19.3137 10.531 24.0195C12.1945 29.4694 14.0879 32.9091 15.7253 33.4548C15.9819 33.5409 16.7639 33.8014 17.8827 32.4571C19.9864 29.9259 21.9193 27.9059 21.9385 27.8857C22.0562 27.7717 22.2135 27.7077 22.3774 27.7072C22.5412 27.7068 22.6989 27.7698 22.8173 27.8832C22.9356 27.9966 23.0054 28.1514 23.0119 28.3151C23.0185 28.4789 22.9613 28.6388 22.8525 28.7613C22.8333 28.781 20.93 30.7709 18.8558 33.2662C17.8733 34.447 16.9313 34.7937 16.1641 34.7937ZM43.7016 29.461C43.5867 29.4612 43.4739 29.43 43.3754 29.3709C43.2768 29.3118 43.1963 29.2269 43.1424 29.1255C43.0884 29.024 43.0632 28.9097 43.0693 28.795C43.0754 28.6802 43.1127 28.5693 43.1772 28.4742C49.0722 19.7264 51.1415 9.157 49.3692 6.89274C47.1384 4.04246 43.9882 2.5533 40.0068 2.46811C37.0585 2.40409 34.715 3.15704 34.3324 3.28853L34.2363 3.32743C33.8512 3.44857 33.5558 3.23731 33.4445 2.9906C33.3811 2.84924 33.3715 2.68958 33.4176 2.54167C33.4636 2.39375 33.5622 2.26776 33.6946 2.18742L33.865 2.11749L33.8567 2.11995L33.8655 2.117C34.516 1.87915 36.895 1.1651 39.8423 1.19908C44.2482 1.24537 47.8874 2.9448 50.3664 6.11221C51.5394 7.61121 51.5419 11.0647 50.3738 15.5869C49.183 20.1971 46.9424 25.1526 44.2271 29.1818C44.1692 29.268 44.091 29.3385 43.9993 29.3872C43.9077 29.4359 43.8054 29.4613 43.7016 29.461ZM44.0025 33.5104C42.996 33.5104 42.0938 33.3691 41.5536 33.045C40.9981 32.7126 40.8922 32.2601 40.8784 32.0203C40.7268 29.3591 42.1952 28.8957 42.9442 28.6844C42.8398 28.5269 42.6911 28.3412 42.538 28.1496C42.1012 27.604 41.5033 26.8565 41.0424 25.7386C40.9705 25.5643 40.744 25.158 40.482 24.6882C39.0623 22.1428 36.1086 16.8456 38.006 14.1327C38.8845 12.8774 40.6327 12.3835 43.2092 12.6593C42.4513 10.3502 38.8417 3.12651 30.2781 2.98616C27.7021 2.94283 25.5895 3.73517 24.0023 5.33759C20.4483 8.92703 20.5774 15.4214 20.5788 15.4859C20.581 15.569 20.5668 15.6517 20.537 15.7292C20.5072 15.8068 20.4624 15.8778 20.4052 15.938C20.348 15.9983 20.2795 16.0467 20.2036 16.0805C20.1277 16.1143 20.0459 16.1328 19.9628 16.135C19.8797 16.1371 19.797 16.1229 19.7195 16.0931C19.6419 16.0633 19.5709 16.0186 19.5107 15.9614C19.4504 15.9041 19.402 15.8356 19.3682 15.7597C19.3344 15.6838 19.3159 15.602 19.3137 15.5189C19.3059 15.2308 19.1729 8.41587 23.1031 4.44676C24.9424 2.58925 27.3633 1.67232 30.2987 1.72009C35.7787 1.8102 39.3051 4.59548 41.299 6.91687C43.4717 9.44607 44.5373 12.2363 44.625 13.167C44.6905 13.8594 44.1936 13.9982 44.0931 14.0184L43.8651 14.0238C41.3364 13.6191 39.7143 13.8997 39.0436 14.8585C37.6002 16.9209 40.3944 21.9315 41.5876 24.0717C41.8924 24.6173 42.112 25.0118 42.2125 25.2555C42.6045 26.206 43.1156 26.8447 43.5263 27.3578C43.8873 27.8094 44.2005 28.2004 44.3128 28.6603C44.3645 28.7514 45.1021 29.8417 49.4775 28.9385C50.5742 28.7125 51.2316 28.906 51.4325 29.5137C51.828 30.7099 49.6095 32.1045 48.3813 32.6752C47.2792 33.1869 45.5227 33.5104 44.0025 33.5104ZM42.1406 31.9159C42.2789 32.0562 42.9733 32.2975 44.4117 32.236C45.6901 32.1808 47.0389 31.9026 47.8485 31.5273C48.8836 31.0467 49.574 30.5094 49.9321 30.1426L49.7331 30.179C46.9355 30.7567 44.9569 30.6798 43.8523 29.95C43.778 29.9011 43.7065 29.848 43.6381 29.791C43.5184 29.8382 43.4076 29.8693 43.3288 29.8914C42.702 30.0672 42.0539 30.2489 42.1406 31.9159ZM24.0693 35.4511C23.3745 35.4511 22.6432 35.3571 21.8961 35.1695C21.1225 34.9759 19.8175 34.3934 19.8377 33.4365C19.8599 32.3625 21.4214 32.0405 22.0099 31.9193C24.1333 31.482 24.2717 31.3067 24.9355 30.4641C25.129 30.2184 25.3698 29.9126 25.6978 29.5457C26.1853 29.0006 26.7182 28.7238 27.2815 28.7238C27.6735 28.7238 27.9956 28.8573 28.2078 28.9449C28.8854 29.2256 29.4507 29.9042 29.6832 30.7168C29.893 31.4495 29.793 32.1547 29.4015 32.7023C28.1172 34.5012 26.2735 35.4511 24.0693 35.4511ZM21.2047 33.4912C21.3958 33.6384 21.7779 33.8354 22.2029 33.9423C22.85 34.1038 23.4774 34.186 24.0693 34.186C25.8726 34.186 27.3199 33.439 28.3718 31.9671C28.5909 31.6598 28.5254 31.2703 28.4668 31.0649C28.3437 30.6355 28.0384 30.245 27.7237 30.114C27.5529 30.0431 27.4115 29.9889 27.2815 29.9889C27.2116 29.9889 26.9993 29.9889 26.6413 30.3893C26.339 30.7271 26.1218 31.0029 25.9293 31.2466C25.1029 32.296 24.7242 32.6521 22.265 33.1588C21.6652 33.2829 21.3574 33.408 21.2047 33.4912ZM26.0711 30.572C25.92 30.5718 25.774 30.5175 25.6594 30.4191C25.5448 30.3207 25.4692 30.1845 25.4462 30.0352C25.43 29.9301 25.4195 29.8243 25.4147 29.7181C23.8024 29.6876 22.2472 28.9962 21.0669 27.7641C19.5743 26.2065 18.8947 24.0486 19.2029 21.8439C19.5378 19.4496 19.4127 17.336 19.3453 16.2005C19.3284 15.9669 19.318 15.7329 19.3142 15.4987C19.3152 15.2988 19.3192 14.7674 21.0944 13.8677C21.7257 13.5476 22.9918 12.9892 24.3746 12.8459C26.6665 12.6095 28.1768 13.6299 28.6289 15.7198C29.8491 21.3633 28.7254 23.8595 27.905 25.682C27.7518 26.0208 27.6075 26.3419 27.4923 26.6521L27.3904 26.9264C26.957 28.0886 26.5822 29.0927 26.6975 29.8432C26.7228 30.0091 26.6813 30.1782 26.5821 30.3136C26.4828 30.4489 26.3339 30.5394 26.1681 30.5651L26.0711 30.572ZM20.5838 15.6735L20.6089 16.1256C20.6788 17.305 20.8088 19.5003 20.4562 22.0197C20.2021 23.8378 20.7576 25.6131 21.9803 26.889C22.9465 27.8975 24.219 28.454 25.5264 28.454H25.5535C25.7003 27.8369 25.9431 27.1859 26.2045 26.4842L26.306 26.2119C26.4365 25.8612 26.5891 25.522 26.7507 25.163C27.5405 23.4079 28.5235 21.2234 27.3913 15.9872C27.1668 14.9506 26.6231 14.3503 25.7293 14.1524C23.8935 13.7466 21.158 15.1274 20.5838 15.6735ZM24.4032 15.4052C24.3717 15.6287 24.8134 16.2261 25.3886 16.3058C25.9632 16.3861 26.4552 15.9193 26.4862 15.6957C26.5172 15.4716 26.076 15.2254 25.5003 15.1451C24.9257 15.0649 24.4337 15.1811 24.4032 15.4052ZM25.521 16.5264L25.3595 16.5151C25.0025 16.4654 24.6415 16.2403 24.3948 15.9129C24.3081 15.7981 24.1663 15.5746 24.1944 15.3756C24.2348 15.0836 24.5903 14.9093 25.1463 14.9093C25.2709 14.9093 25.3999 14.9186 25.5304 14.9363C25.8337 14.9787 26.1159 15.0663 26.3242 15.1826C26.6852 15.3845 26.7118 15.609 26.6955 15.7257C26.6507 16.0473 26.1376 16.5264 25.521 16.5264ZM24.613 15.4426C24.6312 15.5805 24.9724 16.036 25.4176 16.0975L25.5205 16.1049C25.9312 16.1049 26.2385 15.7814 26.2745 15.6755C26.2365 15.6036 25.9726 15.4239 25.4713 15.3549C25.3635 15.3394 25.2547 15.3315 25.1458 15.3313C24.8247 15.3308 24.6528 15.4032 24.613 15.4426ZM41.9081 14.9487C41.9392 15.1727 41.4984 15.7701 40.9228 15.8498C40.3476 15.9296 39.8556 15.4633 39.8241 15.2392C39.7936 15.0156 40.2348 14.7689 40.81 14.6891C41.3852 14.6084 41.8766 14.7256 41.9081 14.9487ZM40.7903 15.9641C40.2363 15.9641 39.7591 15.5332 39.7197 15.254C39.6744 14.9186 40.2264 14.6635 40.7957 14.5847C40.9208 14.567 41.0449 14.5581 41.1645 14.5581C41.6555 14.5581 41.9805 14.7024 42.013 14.9344C42.0342 15.0851 41.919 15.317 41.72 15.5258C41.589 15.6637 41.3133 15.9025 40.938 15.9542L40.7903 15.9641ZM41.1641 14.7689C41.0542 14.7689 40.94 14.7773 40.8243 14.793C40.252 14.8723 39.9118 15.1023 39.928 15.2254C39.9472 15.3603 40.3121 15.7533 40.7898 15.7533L40.9075 15.7449C41.2197 15.7011 41.4541 15.4977 41.5659 15.38C41.7412 15.1954 41.8111 15.022 41.8028 14.9624C41.7924 14.8851 41.5816 14.7689 41.1641 14.7689ZM42.7369 27.7956C42.6223 27.7955 42.5099 27.7643 42.4116 27.7053C42.3133 27.6463 42.2329 27.5618 42.179 27.4606C42.125 27.3595 42.0995 27.2456 42.1053 27.1312C42.111 27.0167 42.1477 26.9059 42.2115 26.8107C43.5588 24.7981 43.3121 22.7451 43.0738 20.7605C42.9718 19.9145 42.8669 19.0404 42.8945 18.2008C42.9221 17.3375 43.0314 16.6254 43.1378 15.936C43.2633 15.12 43.382 14.3484 43.3328 13.4334C43.3292 13.269 43.3897 13.1096 43.5015 12.9889C43.6133 12.8683 43.7677 12.7959 43.9319 12.7871C44.0962 12.7783 44.2574 12.8337 44.3815 12.9416C44.5056 13.0496 44.5829 13.2016 44.5969 13.3654C44.653 14.4114 44.5186 15.284 44.3886 16.1286C44.2881 16.7801 44.1842 17.4537 44.1591 18.2411C44.135 18.9842 44.23 19.7736 44.3305 20.6088C44.5846 22.7199 44.8717 25.1127 43.2634 27.5144C43.1412 27.6966 42.9408 27.7956 42.7369 27.7956Z" fill="white"/>
<path d="M0 48.7964C0.707049 48.6817 1.42241 48.626 2.13869 48.63C3.23931 48.63 4.04643 48.886 4.55857 49.347C5.0323 49.7567 5.31398 50.384 5.31398 51.1528C5.31398 51.9338 5.08302 52.5483 4.6477 52.9965C4.05874 53.6238 3.09847 53.9439 2.01016 53.9439C1.67727 53.9439 1.36998 53.9311 1.1144 53.8671V57.3246H0V48.7964ZM1.1144 52.9576C1.35767 53.0216 1.66496 53.0472 2.03626 53.0472C3.38015 53.0472 4.20007 52.3942 4.20007 51.2035C4.20007 50.064 3.39344 49.5134 2.1643 49.5134C1.67776 49.5134 1.30646 49.5518 1.1144 49.603V52.9576ZM12.0615 54.1739C12.0615 56.4657 10.4733 57.4649 8.97532 57.4649C7.29805 57.4649 6.00488 56.2358 6.00488 54.2763C6.00488 52.2022 7.36206 50.9858 9.07774 50.9858C10.8579 50.9853 12.0615 52.279 12.0615 54.1739ZM7.14489 54.2379C7.14489 55.5951 7.92591 56.6194 9.02702 56.6194C10.1025 56.6194 10.9087 55.6079 10.9087 54.2123C10.9087 53.1624 10.3842 51.8309 9.05214 51.8309C7.72007 51.8309 7.14489 53.06 7.14489 54.2379ZM13.3285 56.1713C13.6614 56.3889 14.2504 56.6194 14.8138 56.6194C15.6332 56.6194 16.0173 56.2097 16.0173 55.6975C16.0173 55.1598 15.6977 54.8653 14.865 54.558C13.7511 54.1611 13.2261 53.5465 13.2261 52.8039C13.2261 51.8052 14.0327 50.9858 15.3643 50.9858C15.9917 50.9858 16.5427 51.1651 16.8884 51.3699L16.6067 52.1893C16.2257 51.9545 15.7868 51.8304 15.3392 51.8309C14.6734 51.8309 14.3021 52.215 14.3021 52.6759C14.3021 53.188 14.6739 53.4185 15.4805 53.7258C16.556 54.1355 17.1066 54.6732 17.1066 55.5951C17.1066 56.6834 16.2615 57.4516 14.7891 57.4516C14.1105 57.4516 13.4832 57.2852 13.0478 57.0291L13.3285 56.1713ZM19.9101 49.3465V51.1262H21.5228V51.984H19.9101V55.3257C19.9101 56.094 20.1272 56.5293 20.7551 56.5293C20.9752 56.5324 21.1947 56.5066 21.4081 56.4525L21.4593 57.2975C21.2421 57.3871 20.8959 57.4511 20.4611 57.4511C19.9362 57.4511 19.5132 57.2847 19.2443 56.9774C18.9247 56.6445 18.809 56.094 18.809 55.3641V51.984H17.8487V51.1262H18.809V49.6409L19.9101 49.3465ZM28.0532 51.1267C28.0271 51.5748 28.0019 52.0741 28.0019 52.8295V56.4273C28.0019 57.8485 27.7203 58.7192 27.1185 59.2574C26.5167 59.8208 25.6461 60 24.8651 60C24.1224 60 23.303 59.8208 22.8032 59.4879L23.0849 58.63C23.4946 58.8861 24.1348 59.1166 24.903 59.1166C26.0553 59.1166 26.9003 58.5148 26.9003 56.9528V56.2614H26.8747C26.529 56.8375 25.8632 57.2985 24.903 57.2985C23.3665 57.2985 22.2654 55.9925 22.2654 54.2763C22.2654 52.1765 23.6354 50.9858 25.0566 50.9858C26.1326 50.9858 26.7216 51.5492 26.9905 52.0613H27.0161L27.0673 51.1267H28.0532ZM26.888 53.5721C26.888 53.3801 26.8752 53.2136 26.824 53.06C26.6192 52.407 26.0686 51.8693 25.2492 51.8693C24.1732 51.8693 23.4054 52.7783 23.4054 54.2123C23.4054 55.4287 24.02 56.4401 25.2364 56.4401C25.9278 56.4401 26.5551 56.0048 26.7984 55.2878C26.8624 55.0958 26.8885 54.8781 26.8885 54.686V53.5721H26.888ZM29.7939 53.06C29.7939 52.3302 29.7811 51.7028 29.7427 51.1267H30.7291L30.767 52.343H30.8182C31.0999 51.5108 31.7785 50.9858 32.5339 50.9858C32.6619 50.9858 32.7511 50.9986 32.8535 51.0242V52.0869C32.7275 52.0595 32.5988 52.0466 32.4699 52.0485C31.6761 52.0485 31.1122 52.6503 30.9591 53.4953C30.9275 53.6686 30.9103 53.8442 30.9079 54.0203V57.3236H29.7939V53.06ZM34.4805 54.43C34.5062 55.9536 35.4787 56.581 36.6055 56.581C37.4126 56.581 37.8986 56.4401 38.3211 56.2609L38.5132 57.0675C38.1163 57.2468 37.4377 57.4516 36.4518 57.4516C34.5441 57.4516 33.4046 56.1969 33.4046 54.3275C33.4046 52.4582 34.5057 50.9853 36.311 50.9853C38.3339 50.9853 38.8717 52.765 38.8717 53.9045C38.8717 54.135 38.8461 54.3143 38.8333 54.4295H34.4805V54.43ZM37.7839 53.6234C37.7962 52.9064 37.4889 51.7924 36.2218 51.7924C35.0823 51.7924 34.583 52.8423 34.4929 53.6234H37.7839Z" fill="black"/>
<path d="M40.152 55.9664C40.7557 56.329 41.4453 56.5235 42.1494 56.5298C43.2889 56.5298 43.9547 55.928 43.9547 55.0574C43.9547 54.2507 43.4938 53.7898 42.3287 53.3417C40.9203 52.8423 40.0496 52.1125 40.0496 50.8962C40.0496 49.5518 41.1635 48.5531 42.8408 48.5531C43.7242 48.5531 44.3644 48.758 44.7485 48.9757L44.4412 49.8847C43.9376 49.6139 43.3743 49.4731 42.8024 49.475C41.6245 49.475 41.1763 50.1792 41.1763 50.7682C41.1763 51.5748 41.7008 51.9717 42.892 52.4326C44.3516 52.9965 45.0942 53.7002 45.0942 54.9677C45.0942 56.2993 44.1084 57.4516 42.0726 57.4516C41.2404 57.4516 40.3313 57.2084 39.8699 56.9011L40.152 55.9664ZM53.7367 58.5912C52.6236 58.2991 51.5218 57.966 50.4333 57.5925C50.2541 57.5285 50.0748 57.4644 49.9084 57.4644C47.8598 57.3876 46.1057 55.8768 46.1057 53.0984C46.1057 50.3328 47.7958 48.5531 50.126 48.5531C52.4691 48.5531 53.9932 50.3713 53.9932 52.9192C53.9932 55.1342 52.9689 56.5554 51.5349 57.0547V57.1059C52.3928 57.3236 53.3274 57.5285 54.0572 57.6565L53.7367 58.5912ZM52.8148 52.9704C52.8148 51.2419 51.919 49.4617 50.0876 49.4617C48.2055 49.4617 47.2836 51.203 47.2964 53.0728C47.2836 54.9037 48.2951 56.5554 50.0364 56.5554C51.8166 56.5554 52.8148 54.9421 52.8148 52.9704ZM55.439 48.694H56.5534V56.3889H60.2409V57.3236H55.439V48.694Z" fill="#336791"/>
</svg>
