<svg width="56" height="56" viewBox="0 0 56 56" fill="none" xmlns="http://www.w3.org/2000/svg">
<path d="M28 56C43.464 56 56 43.464 56 28C56 12.536 43.464 0 28 0C12.536 0 0 12.536 0 28C0 43.464 12.536 56 28 56Z" fill="#DD4814"/>
<path d="M8.9601 31.7381C11.0246 31.7381 12.6982 30.0645 12.6982 28C12.6982 25.9355 11.0246 24.262 8.9601 24.262C6.89563 24.262 5.22205 25.9355 5.22205 28C5.22205 30.0645 6.89563 31.7381 8.9601 31.7381Z" fill="white"/>
<path d="M18.9903 41.5119C15.7189 39.3262 13.2852 35.9847 12.2744 32.0709C13.4554 31.1086 14.2097 29.643 14.2097 28C14.2097 26.3571 13.4554 24.8914 12.2744 23.9291C13.2852 20.0153 15.7189 16.6738 18.9903 14.4882L21.7234 19.0663C18.9159 21.0422 17.08 24.3052 17.08 28C17.08 31.6948 18.9159 34.9579 21.7234 36.9337L18.9903 41.5119Z" fill="white"/>
<path d="M34.2827 9.64194C33.2505 11.4298 33.863 13.716 35.6509 14.7482C37.4388 15.7805 39.725 15.1679 40.7572 13.38C41.7894 11.5921 41.1769 9.30595 39.389 8.27372C37.6011 7.24148 35.3149 7.85406 34.2827 9.64194Z" fill="white"/>
<path d="M20.8033 13.4414C24.3318 11.7011 28.4424 11.2642 32.3373 12.3457C32.5802 13.8497 33.4723 15.2358 34.8952 16.0572C36.318 16.8787 37.9645 16.9583 39.3884 16.4166C42.2724 19.2489 43.9493 23.0273 44.2064 26.9533L38.8751 27.0311C38.5677 23.6119 36.6598 20.3904 33.46 18.543C30.2602 16.6956 26.5164 16.654 23.4015 18.0974L20.8033 13.4414Z" fill="white"/>
<path d="M40.7572 42.62C39.7249 40.8321 37.4388 40.2195 35.6509 41.2518C33.863 42.284 33.2504 44.5702 34.2827 46.358C35.3149 48.1459 37.6011 48.7585 39.389 47.7263C41.1768 46.694 41.7894 44.4079 40.7572 42.62Z" fill="white"/>
<path d="M44.2064 29.0467C43.9493 32.9727 42.2723 36.751 39.3883 39.5833C37.9644 39.0417 36.318 39.1213 34.8951 39.9428C33.4723 40.7642 32.5801 42.1503 32.3373 43.6543C28.4424 44.7358 24.3318 44.2989 20.8032 42.5585L23.4015 37.9026C26.5163 39.346 30.2601 39.3044 33.4599 37.457C36.6597 35.6096 38.5677 32.3881 38.8751 28.9689L44.2064 29.0467Z" fill="white"/>
</svg>
