<svg width="60" height="60" viewBox="0 0 60 60" fill="none" xmlns="http://www.w3.org/2000/svg">
<path fill-rule="evenodd" clip-rule="evenodd" d="M40.9799 47.8148C41.0632 47.6546 41.143 47.5132 41.211 47.3667C41.2539 47.2731 41.32 47.2544 41.4132 47.2568C41.9717 47.2726 42.5302 47.2898 43.0892 47.2953C43.5639 47.3002 44.0396 47.2913 44.5148 47.2859C45.0501 47.2795 45.5855 47.2514 46.1203 47.2667C46.8326 47.2874 47.5267 47.4269 48.171 47.7439C48.9404 48.1229 49.5226 48.7002 49.9194 49.4608C50.1689 49.9431 50.3246 50.4683 50.3784 51.0086C50.4632 51.8013 50.4075 52.5757 50.1561 53.3339C49.8445 54.2734 49.253 54.9926 48.4312 55.5314C47.7988 55.946 47.1052 56.191 46.3618 56.331C45.5751 56.4793 44.7859 56.4315 43.9967 56.434C43.1311 56.4374 42.266 56.4187 41.4003 56.4089C41.249 56.4074 41.2273 56.3788 41.2672 56.2344L41.3042 56.1013C41.3885 55.8361 41.4339 55.8242 41.703 55.7799C41.8938 55.7498 42.0763 55.6805 42.2388 55.5763C42.3295 55.5161 42.367 55.3594 42.4025 55.2386C42.4331 55.1331 42.4345 55.0173 42.4355 54.9059C42.4478 53.2175 42.4607 51.5297 42.4676 49.8423C42.4695 49.4155 42.4588 48.9888 42.4355 48.5626C42.4188 48.2644 42.2595 48.0603 41.9046 47.9898C41.6286 47.9351 41.3506 47.8927 41.073 47.8439L40.9799 47.8148ZM48.9045 51.9028C48.867 51.5666 48.8488 51.2275 48.7886 50.8962C48.6447 50.1011 48.2967 49.4085 47.6854 48.8658C46.697 47.9888 45.5071 47.8538 44.2599 47.9583C43.976 47.9819 43.9149 48.0791 43.9104 48.3709C43.9035 48.785 43.8966 49.199 43.8961 49.6131C43.8942 50.9263 43.8942 52.2395 43.8961 53.5527C43.8966 53.9264 43.9006 54.3 43.9114 54.6727C43.9232 55.0542 44.0618 55.3771 44.4354 55.525C45.0245 55.7582 45.6441 55.7858 46.2623 55.6906C47.2496 55.5393 47.9403 54.964 48.4036 54.1019C48.7704 53.4177 48.8739 52.6708 48.9045 51.9028ZM51.3046 56.3743C51.2928 56.1698 51.3766 56.0007 51.4801 55.8454C51.5082 55.8035 51.6048 55.8055 51.6714 55.7922L52.2363 55.6803C52.4359 55.6379 52.5409 55.5038 52.569 55.3081C52.5878 55.179 52.6055 55.0483 52.607 54.9177C52.6204 53.884 52.6301 52.8503 52.6361 51.8166C52.641 50.7814 52.637 49.7462 52.637 48.711L52.6326 48.5133C52.6124 48.1806 52.4517 48.0081 52.1214 47.9593L51.4052 47.8503C51.3169 47.8385 51.2849 47.7961 51.3169 47.7177C51.3721 47.5841 51.4249 47.4456 51.5028 47.3253C51.5319 47.281 51.63 47.2637 51.696 47.2652C52.0381 47.2701 52.3802 47.2958 52.7223 47.2953L55.7002 47.2775C56.274 47.277 56.8281 47.3771 57.3427 47.6517C57.9091 47.9534 58.2261 48.4202 58.3168 49.0561C58.4114 49.724 58.2088 50.287 57.7208 50.7341C57.5202 50.9184 57.2604 51.0387 57.0277 51.1886L56.9518 51.2359C57.1677 51.3152 57.3733 51.3838 57.5734 51.4656C58.159 51.7057 58.6249 52.0808 58.8713 52.6797C59.0661 53.1525 59.0661 53.6454 58.9507 54.1354C58.7713 54.9024 58.266 55.4126 57.6089 55.7986C56.9922 56.1609 56.3248 56.3719 55.614 56.4074C54.9583 56.4404 54.2998 56.4281 53.6427 56.4355L53.2621 56.4374C52.6288 56.4229 51.9955 56.4071 51.3623 56.3901L51.3046 56.3743ZM54.0341 53.3728H54.0405C54.0405 53.6972 54.036 54.0215 54.0419 54.3459C54.0459 54.5559 54.0385 54.7718 54.0838 54.9739C54.1519 55.2761 54.2899 55.5487 54.629 55.6354C55.0824 55.7546 55.5561 55.7754 56.0182 55.6965C56.5984 55.5955 57.0612 55.3047 57.3151 54.7521C57.5034 54.3414 57.5315 53.9062 57.4669 53.4615C57.3812 52.8759 57.0701 52.451 56.553 52.1725C56.2139 51.9896 55.852 51.8777 55.4666 51.8629C55.0347 51.8466 54.6024 51.8457 54.1706 51.8323C54.0493 51.8289 54.0326 51.8905 54.0331 51.9901C54.0355 52.4505 54.0341 52.9114 54.0341 53.3728ZM54.9534 51.1669C55.1895 51.155 55.4567 51.1516 55.7224 51.125C56.2311 51.0742 56.5895 50.8184 56.7763 50.3318C56.8715 50.0849 56.8675 49.8305 56.87 49.5737C56.8774 48.9047 56.487 48.3566 55.8516 48.1298C55.3611 47.9548 54.8553 47.9519 54.3466 47.9657C54.1405 47.9711 54.0484 48.0613 54.0454 48.2688L54.0148 50.9746C54.0134 51.0821 54.0597 51.1284 54.1642 51.1319L54.9534 51.1669Z" fill="#94795D"/>
<path fill-rule="evenodd" clip-rule="evenodd" d="M3.163 55.8543L3.12701 56.3196C2.79181 56.3196 2.48273 56.3172 2.17366 56.3206C1.59149 56.3265 1.00932 56.3359 0.426655 56.3443L0.370459 56.3477C0.287151 56.3379 0.135817 56.3379 0.131874 56.3132C0.107226 56.1747 0.115113 56.0293 0.121522 55.8858C0.122015 55.8696 0.178704 55.8489 0.211731 55.841L0.664748 55.7399C0.947207 55.6665 1.04678 55.5447 1.06009 55.2529C1.07537 54.9241 1.09065 54.5948 1.09213 54.266C1.09657 53.4566 1.09164 52.6482 1.09509 51.8388C1.09558 51.6495 1.03002 51.5085 0.853547 51.4316C0.643845 51.3385 0.432673 51.2488 0.220111 51.1624C0.11955 51.122 -0.011081 51.0998 0.000749703 50.9648C0.0125804 50.8272 0.139268 50.7913 0.258561 50.7641C0.752493 50.6513 1.24692 50.5413 1.73937 50.421C1.8981 50.3821 2.04993 50.3165 2.23971 50.2505C2.24957 50.353 2.26781 50.4506 2.26584 50.5482L2.23675 51.0121C2.23626 51.0643 2.26337 51.1343 2.30232 51.1634C2.32598 51.1817 2.40534 51.1486 2.44478 51.1181C2.86575 50.7977 3.31138 50.5211 3.8196 50.3599C4.60684 50.11 5.28267 50.3417 5.7559 51.0205C5.92251 51.2595 5.92301 51.2595 6.1542 51.0924C6.55102 50.8041 6.96608 50.5497 7.43044 50.3821C8.44985 50.0139 9.42933 50.4812 9.78376 51.508C9.91291 51.8807 9.96221 52.2657 9.96122 52.659L9.95186 55.2707C9.95136 55.4861 10.0228 55.6088 10.2279 55.6759C10.4581 55.7513 10.6967 55.803 10.956 55.8711L10.8958 56.3201C10.6011 56.3201 10.3299 56.3182 10.0588 56.3206C9.39631 56.3265 8.73379 56.33 8.07176 56.3453C7.95641 56.3482 7.92634 56.3196 7.92042 56.2117C7.9012 55.8661 7.89824 55.8666 8.22359 55.7887L8.33302 55.7606C8.65097 55.6739 8.75695 55.5763 8.75942 55.2539C8.76681 54.3281 8.78604 53.3999 8.73921 52.4761C8.69041 51.5179 7.92979 51.0077 7.00108 51.2531C6.70133 51.3352 6.41904 51.4712 6.168 51.6544C6.08173 51.716 6.06547 51.787 6.07237 51.895C6.09849 52.3031 6.11476 52.7118 6.11821 53.1204C6.12413 53.8357 6.11525 54.5509 6.11821 55.2667C6.1192 55.5566 6.21828 55.6675 6.50468 55.7345L6.93009 55.8326L7.00897 55.8504C7.01488 55.9864 7.0203 56.1225 7.0139 56.2585C7.00995 56.3438 6.9439 56.3512 6.86996 56.3497C6.45637 56.3394 6.0423 56.3256 5.62872 56.3265C5.12542 56.3275 4.62261 56.3418 4.11981 56.3507H4.0015C4.0015 56.2063 3.9946 56.0682 4.00643 55.9307C4.0089 55.8977 4.06706 55.8513 4.10699 55.841L4.6029 55.736C4.81338 55.6842 4.91395 55.5763 4.92578 55.3623C4.98197 54.3715 5.02239 53.3802 4.92923 52.3899C4.90652 52.1943 4.85225 52.0037 4.76853 51.8255C4.51466 51.2645 3.94333 51.0303 3.28426 51.1989C2.97124 51.2788 2.68879 51.4222 2.42161 51.6031C2.36335 51.639 2.31549 51.6895 2.2828 51.7496C2.25011 51.8097 2.23372 51.8773 2.23528 51.9457C2.23528 52.9341 2.23873 53.9224 2.24168 54.9103L2.24711 55.2914C2.25302 55.5571 2.36591 55.6971 2.62963 55.7542C2.79921 55.7927 2.97075 55.8188 3.163 55.8543Z" fill="#50382B"/>
<path fill-rule="evenodd" clip-rule="evenodd" d="M32.9656 50.3515C33.042 50.7232 33.0405 51.0574 32.7674 51.3108C32.4963 51.5627 32.1532 51.4779 31.8185 51.4217C31.8495 51.5982 31.884 51.748 31.9008 51.8999C32.0225 53.0282 31.537 53.8657 30.4905 54.3444C30.0951 54.5248 29.6756 54.5918 29.2473 54.6264C29.0343 54.6431 28.848 54.8058 28.8278 54.9808C28.8071 55.1582 28.9185 55.3406 29.1413 55.3939C29.404 55.4565 29.6781 55.4742 29.9477 55.5053C30.5265 55.5713 31.1116 55.6014 31.6834 55.7049C32.548 55.8607 33.0306 56.6154 32.8783 57.484C32.7427 58.2569 32.2951 58.8194 31.6711 59.2507C30.6196 59.9793 29.4661 60.1922 28.2377 59.8205C27.5353 59.6076 27.0398 59.1457 26.8688 58.3984C26.783 58.0242 26.8742 57.6856 27.1557 57.4317C27.4904 57.131 27.8547 56.8629 28.2052 56.5789L28.3185 56.465L28.1884 56.3738C27.831 56.2043 27.5451 55.9721 27.4342 55.5689C27.3962 55.4323 27.4357 55.3426 27.5515 55.2726C27.7487 55.1538 27.9449 55.033 28.1396 54.9103C28.2313 54.8531 28.322 54.794 28.4073 54.7279C28.5236 54.6392 28.5133 54.5731 28.3742 54.5219C28.0509 54.4026 27.7635 54.2295 27.5407 53.9633C27.1685 53.5192 27.063 52.9903 27.0936 52.4318C27.1414 51.5592 27.6151 50.9845 28.3851 50.6148C29.3005 50.1755 30.2189 50.1479 31.152 50.5482C31.4971 50.6961 31.8609 50.7276 32.2311 50.702C32.5076 50.6823 32.7491 50.5778 32.9656 50.3515ZM29.5923 56.6026C28.9052 56.5967 28.6897 56.6814 28.2865 57.0921C27.835 57.5525 27.8374 58.1908 28.288 58.6532C28.6301 59.0037 29.057 59.1679 29.5317 59.2172C30.0863 59.2743 30.6324 59.2512 31.1362 58.9736C31.6735 58.6764 31.9407 58.1243 31.8199 57.5683C31.7199 57.1093 31.3817 56.8993 30.9701 56.7786C30.5018 56.6415 30.0177 56.6154 29.5923 56.6026ZM28.2426 52.2114C28.2678 52.4022 28.2781 52.5954 28.3205 52.7822C28.4304 53.2663 28.6409 53.6917 29.1225 53.9071C29.688 54.161 30.4101 54.0521 30.6576 53.2584C30.8266 52.7303 30.8069 52.1598 30.6019 51.6445C30.515 51.409 30.3585 51.2055 30.1533 51.0609C29.6623 50.7183 28.7765 50.6729 28.4157 51.4301C28.2983 51.6761 28.2525 51.9378 28.2426 52.2114Z" fill="#4F382B"/>
<path fill-rule="evenodd" clip-rule="evenodd" d="M21.3069 50.2298C21.3251 50.3141 21.3616 50.4097 21.3626 50.5058C21.3641 50.6887 21.3443 50.8716 21.334 51.0545V51.2132L21.4888 51.0949C21.9127 50.7459 22.3682 50.4486 22.8986 50.2884C23.8559 50.0001 24.8122 50.5241 25.1243 51.4991C25.2426 51.8698 25.2894 52.2509 25.2938 52.6383C25.3037 53.499 25.3096 54.3597 25.3185 55.2204C25.3214 55.5294 25.3569 55.5847 25.6492 55.6739C25.8156 55.7235 25.9853 55.7613 26.157 55.7868C26.2511 55.8015 26.2915 55.8385 26.2866 55.9307L26.2876 56.0155C26.2842 56.3719 26.2595 56.3882 25.914 56.3872C25.0868 56.3857 24.2601 56.3906 23.433 56.3975C23.1865 56.3995 23.186 56.4069 23.1613 56.1634L23.1564 56.0234C23.1717 55.8134 23.1766 55.8153 23.3832 55.7848C23.5222 55.7641 23.6602 55.732 23.7958 55.6965C23.9353 55.6606 24.0023 55.5575 24.021 55.4195C24.0304 55.3495 24.0427 55.2795 24.0422 55.2095C24.0304 54.269 24.0457 53.3274 23.9944 52.3884C23.953 51.6288 23.3733 51.1762 22.6107 51.228C22.2431 51.2535 21.8898 51.3802 21.5898 51.5943C21.3862 51.7367 21.3453 51.9423 21.3463 52.1636C21.3503 53.043 21.3586 53.9224 21.368 54.8023C21.37 54.9951 21.3754 55.1878 21.3936 55.3791C21.4129 55.5881 21.4863 55.6724 21.6914 55.7177C21.8876 55.7611 22.0877 55.7863 22.2972 55.8213L22.315 55.983C22.3219 56.3601 22.2824 56.3882 21.9162 56.3867C21.0609 56.3832 20.2056 56.3886 19.3509 56.398C19.2163 56.4 19.1591 56.3576 19.1626 56.2265L19.1606 56.1703C19.1384 55.8306 19.1483 55.8178 19.4697 55.7626L19.6215 55.732C19.9695 55.6537 20.0587 55.561 20.0637 55.2075C20.0799 54.0881 20.0858 52.9691 20.0972 51.8496C20.0987 51.6889 20.038 51.5642 19.8882 51.4976C19.6779 51.4055 19.4664 51.3161 19.2538 51.2295C19.1364 51.1812 19.0024 51.1506 18.9979 50.9884C18.995 50.8741 19.1172 50.773 19.2843 50.739C19.62 50.671 19.9587 50.6143 20.2904 50.531C20.6207 50.4486 20.9451 50.3382 21.3069 50.2298Z" fill="#4F372B"/>
<path fill-rule="evenodd" clip-rule="evenodd" d="M39.7997 53.1539C39.7839 54.1995 39.5123 55.0449 38.7729 55.6793C37.8363 56.4843 36.3752 56.7578 35.1808 56.156C34.6711 55.8991 34.2965 55.5053 34.0525 54.9941C33.6783 54.2078 33.5847 53.3812 33.7799 52.5343C33.9731 51.6968 34.4803 51.09 35.2395 50.6971C36.0203 50.2933 36.8425 50.1356 37.7096 50.3476C38.8064 50.6152 39.5947 51.5094 39.7514 52.6482C39.7795 52.8478 39.7904 53.0499 39.7997 53.1539ZM38.5294 53.7203L38.487 53.7154C38.487 53.6168 38.4924 53.5182 38.486 53.4196C38.45 52.8054 38.312 52.2203 37.9561 51.7061C37.6184 51.2191 37.1585 50.9317 36.5601 50.8898C35.8902 50.8425 35.3272 51.2171 35.1296 51.9013C34.8328 52.9286 34.9334 53.9298 35.4549 54.8708C35.6821 55.281 36.0188 55.5836 36.4699 55.7429C37.3537 56.0539 38.1375 55.6512 38.3677 54.7461C38.4525 54.4119 38.4771 54.0624 38.5294 53.7203Z" fill="#4F382B"/>
<path fill-rule="evenodd" clip-rule="evenodd" d="M18.0875 53.2348C18.0692 53.985 17.8923 54.6786 17.4289 55.2815C16.9325 55.9272 16.2503 56.2723 15.4744 56.4177C14.557 56.5893 13.6953 56.4335 12.9584 55.8178C12.6084 55.525 12.3693 55.1499 12.2116 54.723C11.9528 54.023 11.8882 53.3058 12.0474 52.5747C12.2175 51.7924 12.6591 51.1945 13.3438 50.7932C14.1355 50.3303 14.9898 50.1238 15.9022 50.3318C17.0755 50.6 17.7528 51.3645 18.0032 52.522C18.0535 52.7556 18.0604 52.9972 18.0875 53.2348ZM16.8029 53.7297L16.7688 53.7248V53.5838C16.7496 52.8956 16.615 52.24 16.2044 51.6682C15.9003 51.2438 15.4931 50.9776 14.9711 50.9031C14.1202 50.7819 13.5642 51.2866 13.3798 51.9723C13.1393 52.868 13.2147 53.7529 13.5869 54.6022C13.819 55.1316 14.1858 55.5442 14.7492 55.7444C15.6277 56.0564 16.4233 55.6433 16.6456 54.7417C16.7274 54.4119 16.7521 54.0678 16.8029 53.7297Z" fill="#4F372B"/>
<path fill-rule="evenodd" clip-rule="evenodd" d="M38.5659 14.9871C39.1708 16.7356 39.6055 18.5205 39.749 20.3701C39.9265 22.6652 39.8456 24.9446 39.3615 27.2018L39.2994 27.3822C39.1476 27.3827 38.9928 27.3635 38.8444 27.3867C37.5909 27.5838 36.3388 27.7879 35.0862 27.991C33.7912 28.201 32.4953 28.4026 31.2028 28.6264C30.7448 28.7053 30.178 28.6111 29.9931 29.2441L29.9044 29.2741L29.967 25.4893L29.9034 16.357L30.5067 16.2535C31.4931 16.0923 32.4795 15.9281 33.4674 15.7709C34.6455 15.584 35.8247 15.4017 37.0038 15.2193C37.5243 15.1394 38.0454 15.065 38.5659 14.9871Z" fill="#439934"/>
<path fill-rule="evenodd" clip-rule="evenodd" d="M28.6592 40.3082C28.0228 39.7611 27.3642 39.238 26.7544 38.6623C23.4724 35.5666 21.0713 31.9222 19.8887 27.5286C19.5628 26.3199 19.3459 25.091 19.2759 23.8419C19.2267 22.9674 19.1562 22.0855 19.2183 21.2154C19.3824 18.902 19.7171 16.6108 20.3954 14.3822L20.4329 14.3305C20.4989 14.4182 20.5936 14.4961 20.6271 14.5952C21.2896 16.5453 21.9467 18.4973 22.6009 20.4509C24.656 26.5886 26.7086 32.7277 28.7671 38.8644C28.8076 38.9842 28.9116 39.0823 28.9865 39.1902L28.6592 40.3082Z" fill="#45A538"/>
<path fill-rule="evenodd" clip-rule="evenodd" d="M38.5659 14.9871C38.0449 15.0645 37.5238 15.1394 37.0038 15.2193C35.8246 15.4017 34.6455 15.584 33.4674 15.7709C32.48 15.9276 31.4936 16.0918 30.5067 16.2535L29.9034 16.357L29.8984 15.9636C29.8782 15.6402 29.8447 15.3169 29.8403 14.9935L29.7727 8.80505C29.757 7.51402 29.7333 6.22299 29.7072 4.93246C29.6939 4.13035 29.6707 3.32843 29.6377 2.52688C29.6179 2.09654 29.5484 1.66817 29.5208 1.23783C29.5046 0.990368 29.5263 0.740938 29.5317 0.492493C29.8393 1.08846 30.1405 1.68887 30.4565 2.28041C30.9558 3.21553 31.7519 3.90467 32.4692 4.65641C35.3016 7.62937 37.3123 11.0839 38.5659 14.9871Z" fill="#46A037"/>
<path fill-rule="evenodd" clip-rule="evenodd" d="M29.9048 29.2741L29.9936 29.2441C30.1784 28.6111 30.7453 28.7053 31.2033 28.6264C32.4958 28.4026 33.7917 28.201 35.0867 27.991C36.3393 27.7884 37.5914 27.5843 38.8449 27.3866C38.9933 27.3635 39.1481 27.3827 39.2999 27.3822C39.0658 28.2182 38.8814 29.0725 38.5842 29.8854C38.2465 30.8072 37.8383 31.7073 37.405 32.5897C36.7559 33.9055 35.9529 35.1396 35.0128 36.2661C34.2901 37.1346 33.4846 37.9386 32.6777 38.7318C32.2311 39.17 31.7056 39.5274 31.2156 39.9218L31.0884 39.835L30.6315 39.4446L30.1587 38.4074C29.8357 37.198 29.6595 35.954 29.6337 34.7025L29.6426 34.4915L29.7072 33.5776C29.7284 33.2655 29.757 32.954 29.7703 32.6419C29.8176 31.52 29.86 30.3971 29.9048 29.2741Z" fill="#409433"/>
<path fill-rule="evenodd" clip-rule="evenodd" d="M29.9048 29.2741C29.8605 30.3971 29.8181 31.5205 29.7702 32.6434C29.7569 32.9559 29.7288 33.2675 29.7071 33.579L29.4193 33.688C28.7794 31.8044 28.1391 29.9406 27.513 28.0723C26.4774 24.9811 25.4545 21.8854 24.4203 18.7931C23.5852 16.2975 22.7442 13.8038 21.8974 11.3122C21.8575 11.1958 21.7441 11.1041 21.6652 11.0011L23.5088 7.61111C23.5724 7.72104 23.6557 7.82407 23.6957 7.94237C24.5485 10.4663 25.3998 12.9906 26.2437 15.5175C27.342 18.8054 28.4329 22.0949 29.5302 25.3833C29.574 25.5144 29.646 25.6357 29.715 25.7831L29.9674 25.4893L29.9048 29.2741Z" fill="#4FAA41"/>
<path fill-rule="evenodd" clip-rule="evenodd" d="M21.6647 11.0011C21.7441 11.1041 21.8575 11.1958 21.8969 11.3122C22.7438 13.8038 23.5848 16.2975 24.4198 18.7931C25.454 21.8854 26.4769 24.9811 27.5126 28.0723C28.1386 29.9406 28.7789 31.8039 29.4188 33.688L29.7067 33.579L29.6421 34.493L29.5834 34.7034C29.4834 35.7036 29.3991 36.7058 29.2768 37.704C29.2157 38.2044 29.0851 38.6953 28.986 39.1902C28.9115 39.0823 28.807 38.9842 28.7666 38.8644C26.7076 32.7277 24.6554 26.5886 22.6003 20.4509C21.9465 18.4976 21.2886 16.5457 20.6266 14.5952C20.5931 14.4961 20.4984 14.4182 20.4324 14.3305L21.6647 11.0011Z" fill="#4AA73C"/>
<path fill-rule="evenodd" clip-rule="evenodd" d="M29.9669 25.4893L29.7146 25.7831C29.6455 25.6357 29.5736 25.5144 29.5297 25.3833C28.4324 22.0949 27.3415 18.8054 26.2432 15.5175C25.3983 12.991 24.549 10.4659 23.6952 7.94239C23.6553 7.82408 23.572 7.72106 23.5084 7.61113L25.7882 4.61205C25.8602 4.70768 25.9627 4.79296 25.9997 4.90091C26.6327 6.75439 27.2597 8.60935 27.8838 10.4658C28.4664 12.2 29.0402 13.9361 29.6298 15.6673C29.6692 15.7832 29.8067 15.865 29.8984 15.9636L29.9034 16.357L29.9669 25.4893Z" fill="#57AE47"/>
<path fill-rule="evenodd" clip-rule="evenodd" d="M29.8984 15.9636C29.8062 15.8655 29.6692 15.7837 29.6298 15.6673C29.0407 13.9361 28.4664 12.2 27.8838 10.4658C27.2602 8.60932 26.6322 6.75436 25.9997 4.9009C25.9627 4.79295 25.8602 4.70767 25.7882 4.61204C26.5296 3.88593 27.2479 3.13369 28.0193 2.4411C28.705 1.8259 29.2561 1.16634 29.2817 0.193758L29.336 3.05176e-05L29.5312 0.491991C29.5262 0.740436 29.5041 0.989866 29.5203 1.23733C29.5484 1.66767 29.6179 2.09604 29.6372 2.52638C29.6731 3.32742 29.6904 4.12993 29.7067 4.93196C29.7328 6.22249 29.7565 7.51352 29.7722 8.80454L29.8398 14.993C29.8447 15.3169 29.8787 15.6402 29.8984 15.9636Z" fill="#60B24F"/>
<path fill-rule="evenodd" clip-rule="evenodd" d="M28.9865 39.1897C29.0856 38.6948 29.2162 38.2039 29.2773 37.7035C29.3996 36.7058 29.4839 35.7031 29.5839 34.703L29.6091 34.699L29.6337 34.7034C29.6594 35.955 29.8357 37.199 30.1587 38.4084C30.0921 38.4962 29.999 38.5736 29.9635 38.6722C29.6899 39.4441 29.4316 40.2225 29.1565 40.9939C29.1191 41.0994 29.0136 41.1817 28.9401 41.2739L28.6587 40.3078L28.9865 39.1897Z" fill="#A9AA88"/>
<path fill-rule="evenodd" clip-rule="evenodd" d="M28.9401 41.2744C29.0136 41.1817 29.1191 41.0999 29.1565 40.9944C29.4316 40.223 29.6899 39.4446 29.9635 38.6726C29.9985 38.5741 30.0921 38.4967 30.1587 38.4089L30.6314 39.4461C30.5383 39.5782 30.4091 39.698 30.3573 39.8454L29.4523 42.5033C29.4148 42.6103 29.2881 42.6852 29.2024 42.7754L28.9401 41.2744Z" fill="#B6B598"/>
<path fill-rule="evenodd" clip-rule="evenodd" d="M29.2024 42.775C29.2877 42.6847 29.4149 42.6098 29.4523 42.5028L30.3574 39.8449C30.4086 39.6975 30.5383 39.5777 30.6314 39.4456L31.0889 39.8355C30.8681 40.0539 30.7453 40.3063 30.8193 40.6252L30.6802 41.0802C30.6171 41.1581 30.5255 41.2261 30.4944 41.3153C30.1784 42.2204 29.8772 43.1304 29.5588 44.0349C29.5184 44.1493 29.4065 44.2395 29.3281 44.341L29.2024 42.775Z" fill="#C2C1A7"/>
<path fill-rule="evenodd" clip-rule="evenodd" d="M29.3276 44.3406C29.4065 44.239 29.5184 44.1488 29.5583 44.0344C29.8767 43.1299 30.1784 42.2199 30.4939 41.3148C30.525 41.2256 30.6166 41.1581 30.6797 41.0797L30.488 43.1678C30.4367 43.227 30.3628 43.2787 30.3381 43.3473L29.7003 45.1751C29.6554 45.2998 29.5696 45.4112 29.5026 45.5281C29.4429 45.4502 29.3365 45.3748 29.3315 45.2939C29.3128 44.9774 29.3261 44.6585 29.3276 44.3406Z" fill="#CECDB7"/>
<path fill-rule="evenodd" clip-rule="evenodd" d="M29.5031 45.5286C29.5701 45.4117 29.6559 45.3003 29.7008 45.1756L30.3386 43.3478C30.3633 43.2788 30.4377 43.2275 30.4885 43.1683L30.4934 44.5387L30.0345 45.7154L29.5031 45.5286Z" fill="#DBDAC7"/>
<path fill-rule="evenodd" clip-rule="evenodd" d="M30.0345 45.7154L30.4934 44.5387L30.5881 45.9308L30.0345 45.7154Z" fill="#EBE9DC"/>
<path fill-rule="evenodd" clip-rule="evenodd" d="M30.8188 40.6252C30.7453 40.3068 30.8676 40.0544 31.0884 39.8355L31.2156 39.9223L30.8188 40.6252Z" fill="#CECDB7"/>
<path fill-rule="evenodd" clip-rule="evenodd" d="M29.6337 34.7039L29.6091 34.6995L29.5839 34.7035L29.6426 34.493L29.6337 34.7039Z" fill="#4FAA41"/>
</svg>
