<svg width="80" height="54" viewBox="0 0 80 54" fill="none" xmlns="http://www.w3.org/2000/svg">
<path d="M23.5909 35.6702L26.001 43.49C26.5424 45.2655 26.7683 46.5049 26.6779 47.2114C27.9961 43.6812 28.917 39.834 29.4409 35.6702H32.3388C31.0928 42.449 29.4493 47.3751 27.4093 50.4482C25.8198 52.8161 24.0785 54 22.1824 54C21.6769 54 21.0536 53.8473 20.314 53.544V51.9099C20.6753 51.963 21.0993 51.9913 21.5869 51.9913C22.4715 51.9913 23.1844 51.7461 23.7268 51.2569C24.3763 50.6607 24.7013 49.9907 24.7013 49.2481C24.7013 48.7409 24.4478 47.7002 23.943 46.1258L20.585 35.6702H23.5909ZM5.146 30.8638L9.56043 44.3324H9.58752L14.029 30.8638H17.6577C18.4523 37.5432 18.9215 43.6547 19.0657 49.1941H16.0063C15.8987 44.0158 15.6004 39.1464 15.1129 34.5851H15.0859L10.4272 49.1941H8.09751L3.46702 34.5851H3.43975C3.09616 38.9657 2.88001 43.835 2.78986 49.1941H0C0.180287 42.6766 0.631475 36.5669 1.35357 30.8638H5.146Z" fill="#00758F"/>
<path d="M54.5977 30.5918C59.346 30.5918 61.7204 33.6256 61.7204 39.6898C61.7204 42.9852 61.0063 45.4744 59.5796 47.1561C59.3224 47.4634 59.0383 47.7288 58.7391 47.9748L62.0994 49.6363L62.0961 49.6361L60.903 51.6964L56.527 49.1431C55.8016 49.3579 55.0035 49.4653 54.1337 49.4653C51.8023 49.4653 50.0608 48.7857 48.9092 47.4285C47.6453 45.927 47.0138 43.5633 47.0138 40.3412C47.0138 37.0645 47.7265 34.5847 49.1537 32.9009C50.4534 31.3608 52.2686 30.5918 54.5977 30.5918ZM40.0567 30.6186C41.7539 30.6186 43.2972 31.0727 44.6871 31.9777L43.981 33.5508C42.7917 33.0453 41.6189 32.7915 40.4626 32.7915C39.5244 32.7915 38.8013 33.0173 38.2973 33.4717C37.7904 33.9222 37.477 34.5018 37.477 35.2084C37.477 36.294 38.2506 37.2356 39.6787 38.0312C40.0629 38.2401 40.5633 38.5186 41.0775 38.8073L41.1841 38.8672C41.2019 38.8772 41.2197 38.8872 41.2375 38.8972L41.3442 38.9573C41.362 38.9673 41.3798 38.9773 41.3976 38.9873L41.5041 39.0473C42.5853 39.6569 43.6025 40.2387 43.6025 40.2387C45.0307 41.2524 45.7424 42.3331 45.7424 44.1133C45.7424 45.6678 45.1727 46.944 44.0372 47.9425C42.9007 48.9367 41.374 49.4351 39.4621 49.4351C37.6738 49.4351 35.9408 48.8614 34.2621 47.7235L35.0474 46.149C36.4921 46.873 37.7994 47.2346 38.9731 47.2346C40.0742 47.2346 40.936 46.9889 41.5594 46.5035C42.1815 46.0146 42.5543 45.3327 42.5543 44.4678C42.5543 43.3794 41.7973 42.4491 40.4083 41.6686C40.0477 41.4702 39.5858 41.211 39.1081 40.941L39.0017 40.8808C38.8063 40.7703 38.6093 40.6586 38.4166 40.549L38.3119 40.4895C37.3742 39.9561 36.5633 39.49 36.5633 39.49C35.1748 38.4744 34.4787 37.3848 34.4787 35.5893C34.4787 34.1044 34.9979 32.9042 36.0347 31.9911C37.074 31.0761 38.4148 30.6186 40.0567 30.6186ZM67.3008 30.8638V46.9393H73.0685V49.1941H64.3756V30.8638H67.3008ZM76.2736 46.9463V47.3273H75.6393V49.1923H75.1546V47.3273H74.4957V46.9463H76.2736ZM77.4445 46.9463L78.0533 48.4772L78.6126 46.9463H79.2998V49.1923H78.8429V47.483L78.2062 49.1923H77.8768L77.2392 47.483H77.2147V49.1923H76.7823V46.9463H77.4445ZM54.2989 32.8461C51.5007 32.8461 50.1009 35.1554 50.1009 39.7711C50.1009 42.415 50.4718 44.3324 51.2123 45.5272C51.8981 46.6332 52.9722 47.185 54.4348 47.185C57.2331 47.185 58.6329 44.8577 58.6329 40.2051C58.6329 37.5982 58.2619 35.6974 57.5224 34.5019C56.8357 33.3984 55.762 32.8461 54.2989 32.8461Z" fill="#F29111"/>
<path d="M46.9647 1.13583C47.893 -1.14506 51.1387 0.582167 52.3983 1.37906C52.707 1.57828 53.0609 1.99944 53.4149 2.15513C53.9671 2.17689 54.5188 2.21996 55.0719 2.24314C56.1093 2.48685 57.0811 2.68607 57.8985 3.15171C61.6977 5.38906 64.1708 7.669 66.447 11.4348C66.9331 12.2327 67.1762 13.0958 67.5735 13.9589C68.1248 15.2456 68.7445 16.5961 69.3844 17.8129C69.6709 18.3897 69.8927 19.0311 70.2906 19.5182C70.4459 19.7409 70.8871 19.8065 71.151 19.9396C71.8801 20.3171 72.7636 20.6036 73.4494 21.0467C74.7303 21.8452 75.9687 22.7968 77.0943 23.771C77.5138 24.1472 77.7999 24.6795 78.1996 25.0773V25.278C77.8447 25.3869 77.4912 25.4984 77.1372 25.5877C76.3642 25.7864 75.6794 25.7415 74.9294 25.9402C74.466 26.0746 73.8907 26.252 73.4045 26.297C73.4262 26.3188 73.4494 26.3422 73.4494 26.3422C73.7354 27.1592 75.2824 27.8238 75.9899 28.3123C76.8493 28.9325 77.6455 29.6848 78.2864 30.5484C78.5078 30.769 78.7291 30.9696 78.9495 31.1893C79.1034 31.4121 79.1468 31.7001 79.3026 31.8988V31.9659C79.13 31.905 79.006 31.7889 78.8883 31.6674L78.8182 31.5942C78.7481 31.5212 78.6772 31.4498 78.5965 31.3908C78.109 31.0577 77.6248 30.6594 77.1372 30.3497C76.299 29.8179 75.3268 29.5092 74.466 28.9754C73.9794 28.6654 73.5154 28.3123 73.0515 27.9578C72.631 27.6469 72.168 27.0498 71.9037 26.6069C71.748 26.3622 71.7267 26.0745 71.5488 25.8977C71.5807 25.6019 71.8516 25.514 72.1248 25.4418L72.1878 25.4253C72.2821 25.4008 72.3744 25.3763 72.455 25.344C73.6032 24.8564 74.9724 24.6795 76.7403 24.7239C76.6738 24.2799 75.5689 23.7268 75.2164 23.461C74.5084 22.9508 73.759 22.4185 73.0081 21.9541C72.6102 21.7109 71.9245 21.5334 71.4837 21.3347C70.8871 21.0909 69.5614 20.8473 69.231 20.3829C68.6696 19.6509 68.2662 18.7778 67.8746 17.8958L67.768 17.6551C67.7325 17.5749 67.697 17.4947 67.6613 17.4146C67.1983 16.3526 66.6235 15.2453 66.1596 14.1578C65.917 13.6274 65.8056 13.1617 65.5399 12.653C63.9282 9.53076 61.5424 6.91673 58.6498 5.0783C57.6993 4.48016 56.6393 3.9265 55.4693 3.5503C54.8062 3.35013 54.0105 3.46086 53.304 3.30707H52.8391C52.4422 3.19539 52.1109 2.7747 51.8013 2.55277C51.1174 2.08855 50.4326 1.7767 49.6147 1.44545C49.3283 1.31248 48.5099 1.003 48.2244 1.2467C48.0474 1.29118 47.9577 1.35791 47.9143 1.53536C47.7382 1.80036 47.893 2.19928 48.0025 2.44346C48.3343 3.15139 48.7978 3.57207 49.2183 4.17021C49.5926 4.70068 50.0574 5.29882 50.3227 5.87567C50.8951 7.11549 51.1618 8.48922 51.6923 9.72904C51.8891 10.1952 52.2001 10.7256 52.4866 11.1463C52.7292 11.4799 53.1704 11.7213 53.304 12.1438C53.5702 12.5868 52.9057 14.0485 52.7518 14.5127C52.1765 16.3291 52.2879 18.8538 52.9505 20.4284C52.9623 20.4558 52.9741 20.4835 52.9858 20.5114L53.0212 20.5954C53.2631 21.172 53.522 21.793 54.1653 21.9543C54.2097 21.9103 54.1653 21.9334 54.2531 21.9103C54.4089 20.6916 54.4527 19.518 54.8728 18.5645C55.1154 17.9684 55.6001 17.5469 55.9323 17.0602C56.1537 17.1928 56.1537 17.5926 56.2858 17.8571C56.5732 18.5433 56.8819 19.2956 57.2363 19.9838C57.9636 21.4011 58.782 22.775 59.7094 24.0148C60.0199 24.4575 60.4607 24.945 60.8581 25.3439C61.0351 25.4982 61.2333 25.5875 61.3664 25.7862H61.4098V25.8531C60.7472 25.6088 60.3272 24.9233 59.7986 24.5231C58.8037 23.7708 57.612 22.641 56.9263 21.5569C56.6393 20.9347 56.3292 20.3382 56.0201 19.7189V19.6742C55.8879 19.8511 55.9323 20.0267 55.8662 20.2944C55.5793 21.4011 55.8002 22.6635 54.8062 23.0615C53.6797 23.5277 52.8391 22.3092 52.4866 21.7556C51.3596 19.9176 51.0509 16.8171 51.8457 14.3143C52.0222 13.7602 52.0462 13.0958 52.3544 12.6533C52.2879 12.2535 51.9797 12.1442 51.8013 11.899C51.4922 11.4803 51.2274 10.9924 50.9853 10.5272C50.5204 9.61863 50.1896 8.53308 49.8366 7.55874C49.6813 7.16077 49.6369 6.76138 49.4821 6.3847C49.2183 5.80975 48.7317 5.2329 48.3565 4.7242C47.8482 3.99308 46.3682 2.57628 46.9647 1.13583ZM54.2092 5.47498C54.2682 5.53414 54.3395 5.58587 54.4132 5.63675L54.5021 5.69782C54.6206 5.7798 54.7353 5.8663 54.8058 5.98416C54.9171 6.13985 54.9379 6.29364 55.0715 6.44981C55.0715 6.98217 54.9171 7.33614 54.6056 7.55665C54.6056 7.55665 54.5844 7.57985 54.5627 7.60161C54.3862 7.2467 54.2314 6.89369 54.0535 6.53925C53.8345 6.22977 53.5249 5.98417 53.3465 5.63068H53.3035V5.5862C53.5702 5.52042 53.8345 5.47498 54.2092 5.47498H54.2092Z" fill="#00758F"/>
</svg>
