<svg width="62" height="62" viewBox="0 0 62 62" fill="none" xmlns="http://www.w3.org/2000/svg">
<path fill-rule="evenodd" clip-rule="evenodd" d="M26.1656 28.7599L28.3869 30.9681L26.1656 33.1763H10.532V40.532L1 30.9681L10.532 21.5655V28.7599H26.1656Z" fill="#932279"/>
<path fill-rule="evenodd" clip-rule="evenodd" d="M33.2438 26.1656L31.0356 28.3869L28.8274 26.1656V10.532H21.4718L31.0356 1L40.4383 10.532H33.2438V26.1656Z" fill="#EFA724"/>
<path fill-rule="evenodd" clip-rule="evenodd" d="M35.8382 33.2438L33.6169 31.0356L35.8382 28.8274H51.468V21.4718L61 31.0356L51.468 40.4383V33.2438H35.8382Z" fill="#262577"/>
<path fill-rule="evenodd" clip-rule="evenodd" d="M28.7599 35.8382L30.9681 33.6169L33.1763 35.8382V51.4718H40.532L30.9681 61.0038L21.5655 51.4718H28.7599V35.8382Z" fill="#9CCD2A"/>
<path d="M9.97527 9.97525H28.968V28.968H9.97527V9.97525Z" fill="#9CCD2A" stroke="white" stroke-width="1.41479"/>
<path d="M33.0376 9.97525H52.0304V28.968H33.0376V9.97525Z" fill="#932279" stroke="white" stroke-width="1.41479"/>
<path d="M33.0376 33.0376H52.0304V52.0304H33.0376V33.0376Z" fill="#EFA724" stroke="white" stroke-width="1.41479"/>
<path d="M9.97527 33.0376H28.968V52.0304H9.97527V33.0376Z" fill="#262577" stroke="white" stroke-width="1.41479"/>
<path d="M1.26431 31.0019L14.6935 17.5727L28.1245 31.0019L14.6935 44.431L1.26431 31.0019ZM17.5727 14.6934L31.0019 1.2643L44.431 14.6934L31.0019 28.1245L17.5727 14.6934ZM33.8812 31.0019L47.3103 17.5727L60.7394 31.0019L47.3103 44.431L33.8812 31.0019ZM17.5727 47.3103L31.0019 33.8793L44.431 47.3084L31.0019 60.7394L17.5727 47.3103Z" stroke="white" stroke-width="1.41479"/>
</svg>
